<svg xmlns="http://www.w3.org/2000/svg" width="24" height="24" viewBox="0 0 24 24" fill="white">
    <path d="M11.140 2.045 C 9.307 2.203,7.488 2.905,5.982 4.037 C 5.476 4.417,4.645 5.222,4.241 5.725 C 1.589 9.016,1.290 13.553,3.484 17.188 C 4.068 18.154,5.074 19.265,5.980 19.943 C 7.316 20.944,8.742 21.554,10.420 21.844 C 11.110 21.964,12.433 21.992,13.160 21.903 C 16.135 21.540,18.735 19.922,20.375 17.415 C 20.665 16.970,21.061 16.221,21.199 15.854 C 21.448 15.192,21.063 14.536,20.399 14.488 C 20.202 14.473,20.081 14.498,19.672 14.633 C 18.813 14.916,18.454 14.974,17.540 14.977 C 16.615 14.980,16.226 14.924,15.469 14.677 C 13.245 13.951,11.617 12.128,11.114 9.800 C 11.035 9.435,11.023 9.265,11.023 8.500 C 11.023 7.734,11.035 7.566,11.114 7.200 C 11.248 6.582,11.425 6.080,11.700 5.540 C 12.004 4.940,12.331 4.481,12.822 3.961 C 13.033 3.739,13.240 3.481,13.282 3.389 C 13.533 2.835,13.169 2.155,12.560 2.040 C 12.316 1.994,11.714 1.996,11.140 2.045 M10.160 4.215 C 10.160 4.223,10.062 4.425,9.942 4.665 C 8.902 6.745,8.736 9.024,9.467 11.200 C 9.761 12.076,10.399 13.221,10.971 13.899 C 12.404 15.597,14.326 16.636,16.560 16.921 C 16.747 16.945,17.211 16.959,17.590 16.952 C 17.970 16.945,18.280 16.952,18.280 16.966 C 18.280 17.037,17.544 17.806,17.205 18.089 C 14.214 20.586,9.945 20.642,6.960 18.223 C 5.690 17.194,4.755 15.783,4.308 14.220 C 4.067 13.378,4.021 13.015,4.023 12.000 C 4.024 10.997,4.060 10.689,4.264 9.920 C 4.890 7.562,6.561 5.623,8.813 4.642 C 9.307 4.427,10.160 4.156,10.160 4.215" fill-rule="evenodd"/>
</svg>