<svg xmlns="http://www.w3.org/2000/svg" width="24" height="24" viewBox="0 0 24 24" fill="none">
    <path d="M11.800 3.046 C 11.431 3.114,11.111 3.449,11.039 3.845 C 11.012 3.992,11.002 5.476,11.009 8.145 L 11.020 12.220 11.113 12.408 C 11.288 12.763,11.612 12.968,12.000 12.968 C 12.388 12.968,12.712 12.763,12.887 12.408 L 12.980 12.220 12.980 8.000 C 12.980 3.332,12.998 3.663,12.723 3.350 C 12.501 3.096,12.152 2.981,11.800 3.046 M6.753 5.055 C 6.527 5.117,6.388 5.220,5.902 5.685 C 4.522 7.004,3.620 8.803,3.343 10.793 C 3.270 11.312,3.260 12.416,3.322 12.921 C 3.483 14.226,3.999 15.638,4.709 16.720 C 5.943 18.599,7.980 19.996,10.163 20.461 C 11.273 20.698,12.727 20.698,13.837 20.461 C 15.682 20.068,17.480 18.976,18.714 17.500 C 19.751 16.260,20.474 14.574,20.678 12.921 C 20.740 12.416,20.730 11.312,20.657 10.793 C 20.427 9.145,19.793 7.672,18.766 6.405 C 18.382 5.931,17.640 5.226,17.406 5.113 C 16.713 4.778,15.883 5.424,16.039 6.177 C 16.095 6.445,16.225 6.628,16.590 6.951 C 17.217 7.507,17.784 8.289,18.152 9.108 C 18.602 10.107,18.789 11.076,18.748 12.195 C 18.710 13.199,18.469 14.116,18.001 15.035 C 17.670 15.684,17.307 16.180,16.782 16.700 C 15.771 17.701,14.584 18.325,13.189 18.587 C 12.671 18.685,11.329 18.685,10.811 18.587 C 9.413 18.324,8.231 17.703,7.218 16.700 C 6.695 16.182,6.330 15.684,6.004 15.044 C 5.523 14.100,5.289 13.214,5.252 12.195 C 5.211 11.086,5.392 10.139,5.836 9.130 C 6.183 8.340,6.604 7.749,7.328 7.035 C 7.644 6.723,7.865 6.470,7.906 6.375 C 7.988 6.181,7.991 5.825,7.911 5.637 C 7.719 5.186,7.209 4.930,6.753 5.055" stroke="none" fill="white" fill-rule="evenodd"/>
</svg>