<svg xmlns="http://www.w3.org/2000/svg" width="24" height="24" viewBox="0 0 24 24" fill="white">
    <path d="M11.580 2.043 C 10.380 2.137,9.268 2.675,8.399 3.584 C 7.736 4.276,7.330 5.051,7.117 6.030 C 7.039 6.385,7.030 6.579,7.011 8.200 C 6.997 9.467,6.978 9.988,6.946 10.009 C 6.920 10.026,6.819 10.039,6.720 10.040 C 5.820 10.046,4.754 10.793,4.300 11.737 C 4.010 12.340,4.020 12.187,4.020 16.000 C 4.020 19.154,4.026 19.442,4.091 19.699 C 4.362 20.756,5.244 21.638,6.301 21.909 C 6.562 21.975,6.926 21.980,12.000 21.980 C 17.074 21.980,17.438 21.975,17.699 21.909 C 18.756 21.638,19.638 20.756,19.909 19.699 C 19.974 19.442,19.980 19.154,19.980 16.000 C 19.980 12.187,19.990 12.340,19.700 11.737 C 19.246 10.793,18.180 10.046,17.280 10.040 C 17.181 10.039,17.080 10.026,17.054 10.009 C 17.022 9.988,17.003 9.467,16.989 8.200 C 16.970 6.579,16.961 6.385,16.883 6.030 C 16.653 4.973,16.185 4.135,15.416 3.399 C 14.383 2.410,13.025 1.931,11.580 2.043 M12.687 4.061 C 12.850 4.095,13.149 4.205,13.360 4.309 C 13.684 4.468,13.796 4.552,14.122 4.878 C 14.448 5.204,14.532 5.316,14.691 5.640 C 14.988 6.243,15.000 6.349,15.000 8.303 L 15.000 10.000 12.000 10.000 L 9.000 10.000 9.000 8.303 C 9.000 6.349,9.012 6.243,9.309 5.640 C 9.468 5.316,9.552 5.204,9.878 4.878 C 10.203 4.552,10.316 4.468,10.640 4.308 C 10.849 4.205,11.137 4.096,11.280 4.065 C 11.633 3.988,12.328 3.986,12.687 4.061 M17.421 12.075 C 17.626 12.168,17.832 12.374,17.925 12.579 C 17.994 12.731,17.998 12.928,17.998 16.000 C 17.998 19.072,17.994 19.269,17.925 19.421 C 17.832 19.626,17.626 19.832,17.421 19.925 C 17.268 19.995,17.009 19.998,12.000 19.998 C 6.991 19.998,6.732 19.995,6.579 19.925 C 6.374 19.832,6.168 19.626,6.075 19.421 C 6.006 19.269,6.002 19.072,6.002 16.000 C 6.002 12.928,6.006 12.731,6.075 12.579 C 6.168 12.374,6.374 12.168,6.579 12.075 C 6.732 12.005,6.991 12.002,12.000 12.002 C 17.009 12.002,17.268 12.005,17.421 12.075 M11.640 14.053 C 11.246 14.125,10.940 14.294,10.616 14.617 C 10.275 14.957,10.105 15.284,10.046 15.711 C 9.955 16.378,10.162 16.966,10.651 17.428 C 11.047 17.801,11.467 17.971,12.000 17.971 C 12.682 17.971,13.305 17.624,13.683 17.035 C 13.958 16.608,14.047 15.964,13.903 15.460 C 13.625 14.494,12.624 13.872,11.640 14.053" fill-rule="evenodd"/>
</svg>