<svg xmlns="http://www.w3.org/2000/svg" width="24" height="24" viewBox="0 0 24 24" fill="white">
    <path d="M9.790 3.142 C 9.445 3.226,9.247 3.344,8.965 3.636 C 8.824 3.781,7.999 4.818,7.130 5.940 L 5.551 7.980 4.606 8.004 C 3.557 8.031,3.347 8.072,2.961 8.319 C 2.680 8.500,2.345 8.877,2.205 9.170 C 2.012 9.575,1.993 9.861,2.009 12.221 C 2.022 14.251,2.026 14.351,2.107 14.590 C 2.314 15.203,2.832 15.712,3.440 15.902 C 3.609 15.954,3.881 15.976,4.606 15.995 L 5.551 16.020 7.130 18.060 C 7.999 19.182,8.827 20.222,8.971 20.370 C 9.270 20.679,9.516 20.811,9.932 20.885 C 10.853 21.049,11.784 20.388,11.960 19.445 C 12.015 19.149,12.015 4.851,11.960 4.555 C 11.865 4.048,11.449 3.484,11.020 3.283 C 10.585 3.078,10.224 3.037,9.790 3.142 M17.497 4.037 C 17.069 4.141,16.720 4.574,16.720 4.999 C 16.720 5.335,16.817 5.489,17.330 5.969 C 18.245 6.823,18.779 7.531,19.255 8.520 C 19.814 9.682,20.038 10.680,20.038 12.000 C 20.038 13.320,19.814 14.318,19.255 15.480 C 18.779 16.469,18.245 17.177,17.330 18.031 C 16.820 18.508,16.720 18.665,16.720 18.992 C 16.720 19.338,16.963 19.718,17.295 19.888 C 17.504 19.996,17.883 20.002,18.082 19.900 C 18.466 19.705,19.489 18.703,20.000 18.021 C 21.041 16.634,21.709 14.997,21.946 13.251 C 22.031 12.624,22.031 11.376,21.946 10.749 C 21.709 9.007,21.051 7.389,20.003 5.979 C 19.628 5.474,18.454 4.300,18.180 4.155 C 17.959 4.038,17.686 3.991,17.497 4.037 M9.990 15.260 L 9.980 18.521 8.343 16.416 C 7.387 15.186,6.642 14.264,6.551 14.198 C 6.317 14.029,6.092 14.000,4.998 14.000 L 4.000 14.000 4.000 12.003 L 4.000 10.007 5.110 9.993 C 6.178 9.979,6.227 9.975,6.410 9.885 C 6.514 9.834,6.649 9.735,6.710 9.665 C 6.770 9.596,7.531 8.624,8.400 7.506 L 9.980 5.473 9.990 8.737 C 9.996 10.531,9.996 13.467,9.990 15.260 M14.753 7.055 C 14.261 7.190,13.949 7.680,14.042 8.173 C 14.094 8.444,14.202 8.603,14.514 8.865 C 15.202 9.443,15.654 10.145,15.888 11.002 C 15.967 11.291,15.980 11.435,15.980 12.000 C 15.980 12.565,15.967 12.709,15.888 12.998 C 15.654 13.855,15.202 14.557,14.514 15.135 C 14.202 15.397,14.094 15.556,14.042 15.827 C 13.915 16.498,14.532 17.100,15.200 16.956 C 15.457 16.901,15.792 16.657,16.260 16.182 C 16.909 15.524,17.387 14.738,17.676 13.855 C 17.891 13.200,17.969 12.703,17.969 12.000 C 17.969 11.299,17.891 10.800,17.678 10.151 C 17.338 9.113,16.750 8.219,15.940 7.512 C 15.419 7.057,15.139 6.949,14.753 7.055" fill-rule="evenodd"/>
</svg>