<svg xmlns="http://www.w3.org/2000/svg" width="24" height="24" viewBox="0 0 24 24" fill="none">
    <path d="M10.980 3.084 C 10.006 3.202,8.938 3.513,8.063 3.934 C 7.099 4.397,6.330 4.946,5.534 5.740 L 5.008 6.264 4.994 5.522 C 4.980 4.846,4.971 4.763,4.887 4.592 C 4.712 4.235,4.388 4.032,3.993 4.032 C 3.711 4.032,3.457 4.145,3.277 4.350 C 3.010 4.654,3.020 4.550,3.020 7.000 C 3.020 9.450,3.010 9.346,3.277 9.650 C 3.346 9.730,3.488 9.836,3.592 9.887 L 3.780 9.980 6.000 9.980 L 8.220 9.980 8.408 9.887 C 8.763 9.712,8.968 9.388,8.968 9.000 C 8.968 8.612,8.763 8.288,8.408 8.113 C 8.230 8.025,8.165 8.019,7.190 8.000 L 6.159 7.980 6.434 7.640 C 7.466 6.361,8.967 5.461,10.640 5.116 C 11.035 5.035,11.215 5.021,11.920 5.021 C 12.751 5.020,13.020 5.049,13.660 5.205 C 15.001 5.533,16.073 6.143,17.051 7.134 C 18.089 8.186,18.669 9.311,18.980 10.873 C 19.092 11.433,19.178 11.606,19.443 11.797 C 19.999 12.200,20.804 11.883,20.956 11.202 C 21.001 10.999,20.910 10.386,20.744 9.770 C 19.908 6.661,17.460 4.204,14.358 3.360 C 13.565 3.144,13.054 3.075,12.140 3.059 C 11.678 3.052,11.156 3.063,10.980 3.084 M3.753 12.056 C 3.404 12.150,3.123 12.445,3.044 12.799 C 3.014 12.937,3.022 13.079,3.080 13.419 C 3.674 16.885,6.248 19.717,9.642 20.640 C 10.652 20.915,11.905 21.025,12.883 20.924 C 15.028 20.702,16.922 19.799,18.466 18.260 L 18.992 17.736 19.006 18.478 C 19.020 19.154,19.029 19.237,19.113 19.408 C 19.287 19.763,19.612 19.968,20.000 19.968 C 20.388 19.968,20.712 19.763,20.887 19.408 L 20.980 19.220 20.980 17.000 L 20.980 14.780 20.887 14.592 C 20.836 14.488,20.730 14.346,20.650 14.277 C 20.346 14.010,20.450 14.020,18.000 14.020 C 15.550 14.020,15.654 14.010,15.350 14.277 C 14.923 14.651,14.923 15.349,15.350 15.723 C 15.624 15.964,15.684 15.975,16.810 15.999 L 17.841 16.020 17.566 16.360 C 16.534 17.639,15.033 18.539,13.360 18.884 C 12.965 18.965,12.785 18.979,12.080 18.979 C 11.095 18.980,10.597 18.903,9.700 18.613 C 8.037 18.075,6.477 16.714,5.663 15.090 C 5.345 14.456,5.173 13.923,5.002 13.043 C 4.884 12.432,4.648 12.140,4.196 12.043 C 3.962 11.993,3.990 11.992,3.753 12.056" stroke="none" fill="white" fill-rule="evenodd"/>
</svg>