<svg xmlns="http://www.w3.org/2000/svg" width="24" height="24" viewBox="0 0 24 24" fill="white">
    <path d="M4.636 3.042 C 3.451 3.172,2.398 4.107,2.091 5.301 C 2.024 5.563,2.020 5.966,2.020 12.000 C 2.020 18.034,2.024 18.437,2.091 18.699 C 2.362 19.756,3.244 20.638,4.301 20.909 C 4.560 20.975,4.866 20.980,8.500 20.980 C 12.134 20.980,12.440 20.975,12.699 20.909 C 13.756 20.637,14.644 19.749,14.907 18.699 C 15.008 18.294,15.014 15.856,14.915 15.637 C 14.548 14.830,13.447 14.830,13.086 15.637 C 13.034 15.755,13.019 16.008,13.001 17.060 C 12.983 18.169,12.971 18.357,12.911 18.466 C 12.811 18.649,12.605 18.841,12.421 18.925 C 12.269 18.994,12.056 18.998,8.500 18.998 C 4.944 18.998,4.731 18.994,4.579 18.925 C 4.374 18.832,4.168 18.626,4.075 18.421 C 4.005 18.267,4.002 17.977,4.002 12.000 C 4.002 6.023,4.005 5.733,4.075 5.579 C 4.168 5.374,4.374 5.168,4.579 5.075 C 4.731 5.006,4.944 5.002,8.500 5.002 C 12.056 5.002,12.269 5.006,12.421 5.075 C 12.605 5.159,12.811 5.351,12.911 5.534 C 12.971 5.643,12.983 5.831,13.001 6.940 C 13.019 7.992,13.034 8.245,13.086 8.363 C 13.447 9.170,14.548 9.170,14.915 8.363 C 15.014 8.144,15.008 5.706,14.907 5.301 C 14.647 4.261,13.767 3.374,12.719 3.094 C 12.483 3.031,12.121 3.024,8.700 3.017 C 6.632 3.012,4.803 3.024,4.636 3.042 M17.803 8.045 C 17.498 8.102,17.195 8.359,17.079 8.660 C 17.012 8.834,17.022 9.199,17.098 9.381 C 17.141 9.485,17.411 9.788,17.890 10.269 L 18.615 10.998 13.698 11.009 L 8.780 11.020 8.592 11.113 C 8.237 11.288,8.032 11.612,8.032 12.000 C 8.032 12.388,8.237 12.712,8.592 12.887 L 8.780 12.980 13.698 12.991 L 18.615 13.002 17.890 13.731 C 17.101 14.525,17.032 14.627,17.032 15.007 C 17.032 15.399,17.272 15.757,17.635 15.909 C 17.823 15.987,18.185 15.984,18.382 15.902 C 18.611 15.807,21.777 12.649,21.888 12.405 C 21.994 12.174,21.994 11.826,21.889 11.595 C 21.773 11.341,18.559 8.147,18.360 8.089 C 18.130 8.021,17.990 8.010,17.803 8.045" fill-rule="evenodd"/>
</svg>