<svg xmlns="http://www.w3.org/2000/svg" width="24" height="24" viewBox="0 0 24 24" fill="white">
    <path d="M9.790 3.142 C 9.309 3.259,9.042 3.472,8.536 4.142 C 8.211 4.573,8.080 4.836,8.080 5.059 C 8.080 5.277,8.206 5.560,8.381 5.734 C 8.808 6.162,9.427 6.128,9.832 5.655 L 9.992 5.468 10.006 6.344 C 10.019 7.164,10.026 7.232,10.113 7.408 C 10.288 7.763,10.612 7.968,11.000 7.968 C 11.388 7.968,11.712 7.763,11.887 7.408 C 11.977 7.226,11.980 7.181,11.993 6.016 C 12.008 4.678,11.987 4.476,11.793 4.080 C 11.426 3.330,10.604 2.945,9.790 3.142 M4.803 4.045 C 4.498 4.102,4.195 4.359,4.079 4.660 C 4.012 4.834,4.022 5.199,4.098 5.382 C 4.143 5.490,4.457 5.834,5.087 6.466 L 6.009 7.392 5.778 7.691 L 5.546 7.991 4.603 8.010 C 3.556 8.030,3.351 8.069,2.961 8.319 C 2.680 8.500,2.345 8.877,2.205 9.170 C 2.012 9.575,1.993 9.861,2.009 12.221 C 2.022 14.251,2.026 14.351,2.107 14.590 C 2.314 15.203,2.832 15.712,3.440 15.902 C 3.609 15.954,3.881 15.976,4.606 15.995 L 5.551 16.020 7.130 18.060 C 7.999 19.182,8.827 20.222,8.971 20.370 C 9.270 20.679,9.516 20.811,9.932 20.885 C 10.853 21.049,11.784 20.388,11.960 19.445 C 11.984 19.313,12.000 18.095,12.000 16.305 L 12.000 13.381 13.061 14.440 C 14.014 15.391,14.120 15.510,14.096 15.600 C 13.986 16.015,14.009 16.267,14.183 16.530 C 14.419 16.890,14.838 17.049,15.258 16.939 L 15.496 16.877 16.236 17.616 C 16.941 18.321,16.973 18.360,16.909 18.430 C 16.818 18.531,16.720 18.820,16.720 18.990 C 16.720 19.338,16.962 19.717,17.295 19.888 C 17.518 20.003,17.881 20.002,18.109 19.886 C 18.200 19.839,18.287 19.781,18.302 19.757 C 18.318 19.730,18.556 19.938,18.896 20.275 C 19.517 20.890,19.642 20.968,20.007 20.968 C 20.399 20.968,20.757 20.728,20.909 20.365 C 20.996 20.157,20.985 19.796,20.885 19.591 C 20.825 19.468,18.631 17.250,13.151 11.774 C 7.105 5.732,5.471 4.120,5.360 4.088 C 5.129 4.021,4.989 4.010,4.803 4.045 M17.497 4.037 C 17.069 4.141,16.720 4.574,16.720 4.999 C 16.720 5.343,16.813 5.486,17.389 6.029 C 18.774 7.334,19.523 8.654,19.907 10.469 C 20.008 10.942,20.016 11.052,20.018 11.960 C 20.020 12.989,19.999 13.192,19.814 13.940 C 19.688 14.448,19.539 14.869,19.299 15.400 C 19.195 15.631,19.100 15.896,19.090 15.990 C 19.046 16.361,19.250 16.747,19.583 16.926 C 19.862 17.076,20.074 17.102,20.336 17.019 C 20.640 16.924,20.805 16.771,20.991 16.411 C 21.727 14.986,22.131 12.978,22.002 11.388 C 21.823 9.188,21.122 7.384,19.807 5.737 C 19.407 5.236,18.436 4.293,18.175 4.154 C 17.959 4.038,17.686 3.991,17.497 4.037 M14.753 7.055 C 14.259 7.190,13.949 7.680,14.043 8.177 C 14.095 8.450,14.220 8.625,14.572 8.916 C 15.205 9.439,15.609 10.063,15.869 10.920 C 15.962 11.224,15.973 11.329,15.974 11.900 C 15.975 12.252,15.968 12.684,15.959 12.860 C 15.944 13.135,15.954 13.204,16.030 13.348 C 16.361 13.971,17.089 14.100,17.593 13.626 C 17.777 13.452,17.824 13.349,17.904 12.937 C 17.996 12.467,17.996 11.558,17.905 11.040 C 17.663 9.660,16.966 8.405,15.950 7.520 C 15.418 7.056,15.141 6.949,14.753 7.055 M8.710 10.090 L 10.000 11.381 9.990 14.951 L 9.980 18.520 8.420 16.512 C 7.562 15.407,6.801 14.436,6.729 14.355 C 6.657 14.274,6.513 14.166,6.409 14.115 C 6.227 14.025,6.177 14.021,5.110 14.007 L 4.000 13.993 4.000 12.000 L 4.000 10.007 5.110 9.993 C 6.545 9.974,6.484 10.000,7.120 9.150 C 7.263 8.960,7.389 8.803,7.400 8.802 C 7.411 8.801,8.001 9.381,8.710 10.090" fill-rule="evenodd"/>
</svg>