<svg xmlns="http://www.w3.org/2000/svg" width="24" height="24" viewBox="0 0 24 24" fill="white">
    <path d="M5.600 3.044 C 4.678 3.133,3.742 3.598,3.100 4.285 C 2.488 4.940,2.128 5.751,2.041 6.672 C 1.988 7.223,1.988 8.777,2.041 9.328 C 2.129 10.258,2.491 11.067,3.115 11.730 L 3.370 12.000 3.115 12.270 C 2.491 12.933,2.129 13.742,2.041 14.672 C 1.988 15.223,1.988 16.777,2.041 17.328 C 2.199 18.995,3.316 20.360,4.898 20.818 C 5.477 20.986,5.947 21.005,9.200 20.992 L 12.220 20.980 12.408 20.887 C 12.763 20.712,12.968 20.388,12.968 20.000 C 12.968 19.612,12.763 19.288,12.408 19.113 L 12.220 19.020 8.860 19.000 C 5.763 18.981,5.486 18.974,5.321 18.909 C 4.704 18.663,4.262 18.201,4.079 17.609 C 4.007 17.374,4.000 17.235,4.000 16.000 C 4.000 14.770,4.007 14.626,4.079 14.394 C 4.272 13.768,4.767 13.272,5.391 13.079 C 5.643 13.002,5.777 13.000,11.774 13.000 C 15.604 13.000,18.060 12.985,18.328 12.959 C 20.292 12.773,21.773 11.292,21.959 9.328 C 22.012 8.777,22.012 7.223,21.959 6.672 C 21.773 4.708,20.292 3.227,18.328 3.041 C 17.811 2.992,6.108 2.995,5.600 3.044 M18.609 5.079 C 19.233 5.272,19.728 5.768,19.921 6.394 C 19.993 6.626,20.000 6.770,20.000 8.000 C 20.000 9.230,19.993 9.374,19.921 9.606 C 19.728 10.232,19.233 10.728,18.609 10.921 C 18.357 10.998,18.223 11.000,12.000 11.000 C 5.800 11.000,5.642 10.998,5.394 10.921 C 4.768 10.728,4.272 10.233,4.079 9.609 C 4.007 9.374,4.000 9.235,4.000 8.000 C 4.000 6.765,4.007 6.626,4.079 6.391 C 4.272 5.769,4.761 5.279,5.392 5.077 C 5.609 5.008,5.939 5.004,11.986 5.002 C 18.226 5.000,18.357 5.002,18.609 5.079 M6.803 7.046 C 6.498 7.102,6.196 7.359,6.079 7.660 C 6.012 7.834,6.022 8.199,6.098 8.382 C 6.251 8.748,6.598 8.977,7.000 8.977 C 7.554 8.977,7.968 8.559,7.968 8.000 C 7.968 7.377,7.424 6.931,6.803 7.046 M17.673 13.573 C 17.217 13.744,17.001 14.150,16.999 14.839 L 16.998 15.180 16.729 15.307 C 16.581 15.376,16.376 15.498,16.272 15.577 C 16.169 15.655,16.069 15.720,16.051 15.720 C 16.032 15.720,15.837 15.621,15.618 15.500 C 15.259 15.301,15.197 15.280,14.980 15.281 C 14.300 15.283,13.848 15.904,14.046 16.563 C 14.117 16.801,14.295 16.981,14.694 17.220 L 15.063 17.440 15.037 17.720 C 15.023 17.874,15.023 18.126,15.037 18.280 L 15.063 18.560 14.694 18.780 C 14.295 19.019,14.117 19.199,14.046 19.437 C 13.848 20.096,14.300 20.717,14.980 20.719 C 15.197 20.720,15.259 20.699,15.618 20.500 C 15.837 20.379,16.032 20.280,16.051 20.280 C 16.069 20.280,16.169 20.345,16.272 20.423 C 16.376 20.502,16.579 20.624,16.725 20.693 L 16.991 20.820 17.008 21.260 C 17.028 21.761,17.100 21.975,17.324 22.193 C 17.546 22.411,17.667 22.458,18.000 22.458 C 18.333 22.458,18.454 22.411,18.676 22.193 C 18.897 21.977,18.969 21.764,18.991 21.261 L 19.010 20.820 19.275 20.693 C 19.421 20.624,19.624 20.502,19.728 20.423 C 19.831 20.345,19.931 20.280,19.951 20.280 C 19.970 20.280,20.155 20.375,20.363 20.490 C 20.724 20.692,20.751 20.700,21.043 20.700 C 21.311 20.700,21.369 20.686,21.542 20.579 C 22.082 20.245,22.162 19.451,21.695 19.041 C 21.620 18.975,21.419 18.841,21.248 18.742 L 20.937 18.563 20.962 18.281 C 20.977 18.127,20.977 17.874,20.963 17.720 L 20.937 17.440 21.304 17.220 C 21.865 16.886,22.017 16.660,21.992 16.195 C 21.974 15.855,21.823 15.595,21.543 15.422 C 21.383 15.323,21.297 15.299,21.064 15.288 C 20.784 15.276,20.774 15.279,20.382 15.498 C 20.163 15.620,19.968 15.720,19.949 15.720 C 19.931 15.720,19.831 15.655,19.728 15.577 C 19.624 15.498,19.421 15.376,19.275 15.307 L 19.010 15.180 18.991 14.739 C 18.977 14.418,18.950 14.248,18.892 14.119 C 18.805 13.922,18.605 13.707,18.422 13.611 C 18.259 13.526,17.855 13.506,17.673 13.573 M6.803 15.046 C 6.498 15.102,6.196 15.359,6.079 15.660 C 6.012 15.834,6.022 16.199,6.098 16.382 C 6.251 16.748,6.598 16.977,7.000 16.977 C 7.554 16.977,7.968 16.559,7.968 16.000 C 7.968 15.377,7.424 14.931,6.803 15.046 M18.421 17.075 C 18.788 17.241,18.998 17.579,18.998 18.000 C 18.998 18.593,18.593 18.998,18.000 18.998 C 17.407 18.998,17.002 18.593,17.002 18.000 C 17.002 17.407,17.407 17.002,18.000 17.002 C 18.166 17.002,18.318 17.028,18.421 17.075" fill-rule="evenodd"/>
</svg>