<svg xmlns="http://www.w3.org/2000/svg" width="24" height="24" viewBox="0 0 24 24" fill="white">
    <path d="M11.600 1.043 C 10.676 1.134,9.742 1.598,9.100 2.285 C 8.488 2.940,8.128 3.751,8.041 4.672 C 7.988 5.228,7.988 9.772,8.041 10.328 C 8.225 12.269,9.717 13.779,11.624 13.954 C 13.835 14.158,15.748 12.557,15.959 10.328 C 16.012 9.772,16.012 5.228,15.959 4.672 C 15.826 3.266,15.047 2.106,13.806 1.465 C 13.407 1.259,12.886 1.096,12.514 1.061 C 11.998 1.012,11.933 1.011,11.600 1.043 M12.606 3.079 C 13.232 3.272,13.728 3.767,13.921 4.391 C 13.997 4.638,14.000 4.768,14.000 7.500 C 14.000 10.232,13.997 10.362,13.921 10.609 C 13.659 11.456,12.908 12.000,12.000 12.000 C 11.092 12.000,10.341 11.456,10.079 10.609 C 10.003 10.362,10.000 10.232,10.000 7.500 C 10.000 4.768,10.003 4.638,10.079 4.391 C 10.272 3.769,10.761 3.279,11.392 3.077 C 11.712 2.975,12.273 2.976,12.606 3.079 M4.803 9.046 C 4.500 9.102,4.202 9.353,4.076 9.660 C 4.010 9.823,4.023 10.616,4.102 11.145 C 4.601 14.509,7.205 17.222,10.530 17.844 L 11.000 17.932 11.000 18.963 L 11.000 19.995 9.390 20.008 C 7.800 20.020,7.778 20.021,7.592 20.113 C 7.237 20.288,7.032 20.612,7.032 21.000 C 7.032 21.388,7.237 21.712,7.592 21.887 L 7.780 21.980 12.000 21.980 L 16.220 21.980 16.408 21.887 C 16.766 21.711,16.968 21.388,16.968 20.993 C 16.968 20.711,16.855 20.457,16.650 20.277 C 16.355 20.018,16.380 20.021,14.610 20.008 L 13.000 19.995 13.000 18.963 L 13.000 17.932 13.470 17.844 C 17.012 17.182,19.703 14.159,19.957 10.558 C 20.000 9.946,19.969 9.698,19.821 9.475 C 19.626 9.180,19.353 9.033,18.998 9.033 C 18.736 9.032,18.548 9.103,18.350 9.277 C 18.109 9.489,18.042 9.681,17.999 10.286 C 17.959 10.871,17.921 11.130,17.822 11.512 C 17.220 13.833,15.282 15.578,12.900 15.943 C 12.193 16.052,11.171 16.001,10.488 15.822 C 8.786 15.379,7.393 14.234,6.589 12.620 C 6.232 11.902,6.068 11.254,6.001 10.294 C 5.981 10.004,5.939 9.706,5.907 9.631 C 5.729 9.205,5.267 8.960,4.803 9.046" fill-rule="evenodd"/>
</svg>