<svg xmlns="http://www.w3.org/2000/svg" width="24" height="24" viewBox="0 0 24 24" fill="white">
    <path d="M11.600 1.043 C 9.732 1.227,8.218 2.753,8.045 4.626 C 8.004 5.081,8.043 5.326,8.191 5.539 C 8.596 6.118,9.404 6.116,9.813 5.534 C 9.902 5.408,9.937 5.298,9.967 5.055 C 10.031 4.533,10.080 4.334,10.203 4.086 C 10.545 3.403,11.212 3.000,12.000 3.000 C 12.910 3.000,13.658 3.543,13.921 4.394 C 13.996 4.637,14.000 4.779,14.000 7.466 C 14.000 9.911,13.991 10.322,13.936 10.567 C 13.860 10.900,13.883 11.110,14.021 11.346 C 14.297 11.816,14.847 11.977,15.325 11.729 C 15.616 11.578,15.767 11.347,15.885 10.871 C 15.977 10.505,15.978 10.462,15.992 7.842 C 16.007 4.969,15.985 4.474,15.820 3.904 C 15.584 3.091,15.071 2.339,14.408 1.837 C 13.881 1.437,13.097 1.116,12.514 1.061 C 11.998 1.012,11.933 1.011,11.600 1.043 M2.803 2.045 C 2.497 2.102,2.195 2.360,2.080 2.660 C 2.018 2.821,2.018 3.151,2.079 3.344 C 2.120 3.471,2.673 4.045,5.065 6.441 L 8.000 9.381 8.001 9.661 C 8.003 10.108,8.073 10.711,8.161 11.038 C 8.269 11.435,8.583 12.075,8.830 12.400 C 9.365 13.105,10.167 13.631,11.060 13.864 C 11.396 13.952,11.551 13.969,12.028 13.972 L 12.596 13.975 13.404 14.784 L 14.213 15.594 14.057 15.659 C 13.297 15.976,11.942 16.091,10.954 15.922 C 10.091 15.775,9.095 15.346,8.397 14.822 C 7.704 14.302,7.031 13.501,6.645 12.735 C 6.235 11.920,6.067 11.289,6.001 10.315 C 5.958 9.678,5.895 9.492,5.650 9.277 C 5.452 9.103,5.264 9.032,5.002 9.033 C 4.647 9.033,4.374 9.180,4.179 9.475 C 4.034 9.694,4.002 9.943,4.044 10.538 C 4.090 11.182,4.165 11.628,4.321 12.171 C 5.151 15.066,7.518 17.246,10.467 17.829 L 11.000 17.935 11.000 18.965 L 11.000 19.995 9.390 20.008 C 7.800 20.020,7.778 20.021,7.592 20.113 C 7.237 20.288,7.032 20.612,7.032 21.000 C 7.032 21.388,7.237 21.712,7.592 21.887 L 7.780 21.980 12.000 21.980 L 16.220 21.980 16.408 21.887 C 16.763 21.712,16.968 21.388,16.968 21.000 C 16.968 20.612,16.763 20.288,16.408 20.113 C 16.222 20.021,16.200 20.020,14.610 20.008 L 13.000 19.995 13.000 18.959 L 13.000 17.924 13.150 17.899 C 13.944 17.772,14.681 17.552,15.316 17.255 L 15.697 17.077 17.319 18.697 C 19.057 20.433,19.111 20.478,19.500 20.479 C 20.201 20.480,20.683 19.728,20.384 19.100 C 20.246 18.813,3.572 2.149,3.360 2.088 C 3.129 2.021,2.989 2.010,2.803 2.045 M18.813 9.044 C 18.594 9.084,18.449 9.163,18.292 9.327 C 18.090 9.537,18.034 9.723,17.998 10.303 C 17.952 11.047,17.880 11.416,17.654 12.060 C 17.552 12.354,17.244 12.984,17.115 13.167 C 16.804 13.606,16.800 14.118,17.104 14.474 C 17.445 14.872,17.943 14.942,18.387 14.654 C 18.596 14.519,18.848 14.140,19.180 13.460 C 19.702 12.391,19.952 11.357,19.964 10.220 C 19.970 9.728,19.930 9.586,19.723 9.350 C 19.504 9.100,19.151 8.981,18.813 9.044" fill-rule="evenodd"/>
</svg>